<svg width="35" height="35" viewBox="0 0 35 35" fill="none" xmlns="http://www.w3.org/2000/svg">
<rect width="35" height="35" rx="6" fill="#652CDF" fill-opacity="0.2"/>
<path d="M27.1668 22.51V25.26C27.1678 25.5153 27.1156 25.768 27.0133 26.0019C26.911 26.2358 26.761 26.4458 26.5729 26.6184C26.3848 26.791 26.1627 26.9224 25.9208 27.0042C25.679 27.0859 25.4227 27.1163 25.1685 27.0933C22.3477 26.7868 19.6382 25.823 17.2576 24.2792C15.0428 22.8718 13.165 20.994 11.7576 18.7792C10.2085 16.3878 9.24436 13.6651 8.94348 10.8317C8.92057 10.5782 8.95069 10.3227 9.03193 10.0815C9.11317 9.84029 9.24375 9.61864 9.41534 9.43066C9.58694 9.24268 9.7958 9.09249 10.0286 8.98965C10.2614 8.88681 10.5131 8.83358 10.7676 8.83334H13.5176C13.9625 8.82896 14.3938 8.9865 14.7311 9.27658C15.0684 9.56666 15.2887 9.9695 15.351 10.41C15.467 11.2901 15.6823 12.1542 15.9926 12.9858C16.116 13.3139 16.1427 13.6705 16.0696 14.0133C15.9964 14.3561 15.8266 14.6708 15.5801 14.92L14.416 16.0842C15.7209 18.3791 17.6211 20.2792 19.916 21.5842L21.0801 20.42C21.3294 20.1735 21.644 20.0037 21.9868 19.9306C22.3296 19.8575 22.6862 19.8842 23.0143 20.0075C23.846 20.3178 24.7101 20.5331 25.5901 20.6492C26.0354 20.712 26.4421 20.9363 26.7328 21.2794C27.0235 21.6225 27.178 22.0605 27.1668 22.51Z" stroke="#652CDF" stroke-linecap="round" stroke-linejoin="round"/>
</svg>
